<svg width="12" height="6" viewBox="0 0 12 6" fill="none" xmlns="http://www.w3.org/2000/svg">
<path fill-rule="evenodd" clip-rule="evenodd" d="M11.8644 5.87412C11.9074 5.83432 11.9415 5.78704 11.9648 5.73499C11.988 5.68293 12 5.62713 12 5.57077C12 5.51441 11.988 5.45861 11.9648 5.40656C11.9415 5.3545 11.9074 5.30722 11.8644 5.26742L6.32661 0.125877C6.28374 0.0859754 6.23282 0.0543187 6.17675 0.0327184C6.12068 0.0111182 6.06058 -2.17217e-07 5.99988 -2.14564e-07C5.93918 -2.1191e-07 5.87907 0.0111182 5.82301 0.0327185C5.76694 0.0543187 5.71602 0.0859754 5.67315 0.125877L0.135336 5.26742C0.0486812 5.34788 -2.37356e-08 5.45699 -1.87621e-08 5.57077C-1.37887e-08 5.68455 0.0486813 5.79367 0.135336 5.87412C0.22199 5.95458 0.339519 5.99978 0.462067 5.99978C0.584615 5.99978 0.702144 5.95458 0.788797 5.87412L5.99988 1.03507L11.211 5.87412C11.2538 5.91402 11.3048 5.94568 11.3608 5.96728C11.4169 5.98888 11.477 6 11.5377 6C11.5984 6 11.6585 5.98888 11.7146 5.96728C11.7706 5.94568 11.8216 5.91402 11.8644 5.87412Z" fill="#8A93A2"/>
</svg>
