<svg width="6" height="11" viewBox="0 0 6 11" fill="none" xmlns="http://www.w3.org/2000/svg">
<path fill-rule="evenodd" clip-rule="evenodd" d="M0.125877 0.12428C0.165677 0.0848852 0.212958 0.0536295 0.265012 0.0323035C0.317066 0.0109774 0.37287 0 0.429228 0C0.485585 0 0.541389 0.0109774 0.593443 0.0323035C0.645497 0.0536295 0.692779 0.0848852 0.732579 0.12428L5.87412 5.20061C5.91402 5.2399 5.94568 5.28659 5.96728 5.33798C5.98888 5.38937 6 5.44447 6 5.50011C6 5.55575 5.98888 5.61085 5.96728 5.66224C5.94568 5.71364 5.91402 5.76032 5.87412 5.79961L0.732579 10.8759C0.652125 10.9554 0.543006 11 0.429228 11C0.315449 11 0.20633 10.9554 0.125877 10.8759C0.0454229 10.7965 0.000224329 10.6888 0.000224329 10.5764C0.000224329 10.4641 0.0454229 10.3564 0.125877 10.2769L4.96493 5.50011L0.125877 0.723287C0.0859754 0.683991 0.0543181 0.63731 0.0327181 0.585916C0.0111181 0.534522 0 0.479426 0 0.423784C0 0.368141 0.0111181 0.313045 0.0327181 0.261651C0.0543181 0.210257 0.0859754 0.163576 0.125877 0.12428Z" fill="#355169"/>
</svg>
