<svg width="16" height="16" viewBox="0 0 16 16" fill="none" xmlns="http://www.w3.org/2000/svg">
                  <path
                    fillRule="evenodd"
                    clipRule="evenodd"
                    d="M12.8757 10.8741C12.9151 10.8343 12.9464 10.787 12.9677 10.735C12.989 10.6829 13 10.6271 13 10.5708C13 10.5144 12.989 10.4586 12.9677 10.4066C12.9464 10.3545 12.9151 10.3072 12.8757 10.2674L7.79939 5.12588C7.7601 5.08598 7.71341 5.05432 7.66202 5.03272C7.61063 5.01112 7.55553 5 7.49989 5C7.44425 5 7.38915 5.01112 7.33776 5.03272C7.28636 5.05432 7.23968 5.08598 7.20039 5.12588L2.12406 10.2674C2.04462 10.3479 2 10.457 2 10.5708C2 10.6846 2.04462 10.7937 2.12406 10.8741C2.20349 10.9546 2.31123 10.9998 2.42356 10.9998C2.5359 10.9998 2.64363 10.9546 2.72306 10.8741L7.49989 6.03507L12.2767 10.8741C12.316 10.914 12.3627 10.9457 12.4141 10.9673C12.4655 10.9889 12.5206 11 12.5762 11C12.6319 11 12.687 10.9889 12.7383 10.9673C12.7897 10.9457 12.8364 10.914 12.8757 10.8741Z"
                    fill="white"
                  />
                </svg>