<svg width="6" height="11" viewBox="0 0 6 11" fill="none" xmlns="http://www.w3.org/2000/svg">
<path fill-rule="evenodd" clip-rule="evenodd" d="M5.87412 0.12428C5.83432 0.0848852 5.78704 0.0536295 5.73499 0.0323035C5.68293 0.0109774 5.62713 0 5.57077 0C5.51441 0 5.45861 0.0109774 5.40656 0.0323035C5.3545 0.0536295 5.30722 0.0848852 5.26742 0.12428L0.125877 5.20061C0.0859756 5.2399 0.0543184 5.28659 0.0327187 5.33798C0.0111184 5.38937 0 5.44447 0 5.50011C0 5.55575 0.0111184 5.61085 0.0327187 5.66224C0.0543184 5.71364 0.0859756 5.76032 0.125877 5.79961L5.26742 10.8759C5.34787 10.9554 5.45699 11 5.57077 11C5.68455 11 5.79367 10.9554 5.87412 10.8759C5.95458 10.7965 5.99978 10.6888 5.99978 10.5764C5.99978 10.4641 5.95458 10.3564 5.87412 10.2769L1.03507 5.50011L5.87412 0.723287C5.91402 0.683991 5.94568 0.63731 5.96728 0.585916C5.98888 0.534522 6 0.479426 6 0.423784C6 0.368141 5.98888 0.313045 5.96728 0.261651C5.94568 0.210257 5.91402 0.163576 5.87412 0.12428Z" fill="#355169"/>
</svg>
