<svg width="1920" height="268" viewBox="0 0 1920 268" fill="none" xmlns="http://www.w3.org/2000/svg">
<path d="M428.5 10.4384C188.755 10.4384 0 85.824 0 85.824V268.006H1920V163.894C1920 163.894 1679.23 209.774 1439.49 209.774C1199.74 209.774 1195.24 57.1303 955.5 57.1303C714.735 57.1303 776.5 1.49371 428.5 10.4384Z" fill="#2B88D8" fill-opacity="0.1"/>
<path d="M479.49 206.183C239.745 206.183 0 268.038 0 268.038H1920V118.087C1920 118.087 1679.23 0 1439.49 0C1199.74 0 1199.74 134.956 960 134.956C719.235 134.956 719.235 206.183 479.49 206.183Z" fill="#2B88D8" fill-opacity="0.05"/>
<path d="M479.49 51.2061C239.745 51.2061 0 173.306 0 173.306V268.038H1920V154.359C1920 154.359 1785.24 51.2061 1545.5 51.2061C1305.76 51.2061 1199.74 173.306 960 173.306C719.235 173.306 719.235 51.2061 479.49 51.2061Z" fill="#2B88D8" fill-opacity="0.03"/>
</svg>
