<svg width="17" height="19" viewBox="0 0 17 19" fill="none" xmlns="http://www.w3.org/2000/svg">
<path fill-rule="evenodd" clip-rule="evenodd" d="M7.25537 2.43273L8.18758 2.24442V2.24325L9.11979 2.4339C10.177 2.64931 11.1274 3.22333 11.81 4.05883C12.4927 4.89433 12.8658 5.94001 12.8662 7.01895C12.8662 7.75349 13.0229 9.58868 13.4031 11.3958C13.5914 12.2941 13.8429 13.2275 14.1785 14.0369H2.19661C2.5323 13.2275 2.78495 12.2929 2.97209 11.3958C3.35223 9.58868 3.50896 7.75349 3.50896 7.01895C3.50908 5.93981 3.88205 4.89385 4.56475 4.05811C5.24746 3.22237 6.19795 2.64819 7.25537 2.43273ZM16.3752 15.2065C16.0254 14.9738 15.7237 14.5597 15.4628 14.0369C14.4101 11.9315 14.0359 8.04825 14.0359 7.01895C14.0357 5.66984 13.5693 4.36225 12.7156 3.31758C11.8619 2.27291 10.6734 1.55538 9.35139 1.28647C9.36771 1.12384 9.34977 0.959586 9.29871 0.804311C9.24766 0.649036 9.16463 0.506185 9.05497 0.384972C8.94531 0.263759 8.81147 0.166874 8.66207 0.100566C8.51267 0.0342586 8.35103 0 8.18758 0C8.02413 0 7.86249 0.0342586 7.71309 0.100566C7.56369 0.166874 7.42985 0.263759 7.32019 0.384972C7.21054 0.506185 7.1275 0.649036 7.07645 0.804311C7.02539 0.959586 7.00745 1.12384 7.02377 1.28647C4.35111 1.82568 2.33931 4.18839 2.33931 7.01895C2.33931 8.04825 1.96502 11.9315 0.91233 14.0369C0.651497 14.5597 0.349727 14.9738 0 15.2065H16.3752ZM9.84167 18.0305C9.40296 18.4692 8.80795 18.7156 8.18753 18.7156C7.56711 18.7156 6.97209 18.4692 6.53339 18.0305C6.09468 17.5918 5.84822 16.9967 5.84822 16.3763H10.5268C10.5268 16.9967 10.2804 17.5918 9.84167 18.0305Z" fill="#46546C"/>
</svg>
