<svg width="16" height="16" viewBox="0 0 16 16" fill="none" xmlns="http://www.w3.org/2000/svg">
<path d="M8 0C12.4183 0 16 3.58172 16 8C16 12.4183 12.4183 16 8 16C3.58172 16 0 12.4183 0 8C0 3.58172 3.58172 0 8 0ZM8 1.2C4.24446 1.2 1.2 4.24446 1.2 8C1.2 11.7555 4.24446 14.8 8 14.8C11.7555 14.8 14.8 11.7555 14.8 8C14.8 4.24446 11.7555 1.2 8 1.2ZM4.59944 7.39944H11.3994C11.7308 7.39944 11.9994 7.66807 11.9994 7.99944C11.9994 8.30319 11.7737 8.55423 11.4809 8.59396L11.3994 8.59944H4.59944C4.26807 8.59944 3.99944 8.33081 3.99944 7.99944C3.99944 7.69568 4.22516 7.44464 4.51802 7.40491L4.59944 7.39944H11.3994H4.59944Z" fill="#8A93A2"/>
</svg>
