<svg width="20" height="20" viewBox="0 0 20 20" fill="none" xmlns="http://www.w3.org/2000/svg">
<path fill-rule="evenodd" clip-rule="evenodd" d="M2.5 0C1.11929 0 0 1.11929 0 2.5V17.5C0 18.8807 1.11929 20 2.5 20H17.5C18.8807 20 20 18.8807 20 17.5V2.5C20 1.11929 18.8807 0 17.5 0H2.5ZM14.7494 7.53372C15.0749 7.20829 15.0749 6.68065 14.7494 6.35521C14.424 6.02976 13.8964 6.02975 13.5709 6.35518L8.60462 11.3213L6.96743 9.68407C6.64199 9.35863 6.11435 9.35863 5.78892 9.68407C5.46348 10.0095 5.46348 10.5371 5.78892 10.8626L8.01536 13.089C8.34079 13.4144 8.86841 13.4144 9.19385 13.089L14.7494 7.53372Z" fill="#18A0FB"/>
</svg>
