<svg width="16" height="16" viewBox="0 0 16 16" fill="none" xmlns="http://www.w3.org/2000/svg">
<g clip-path="url(#clip0)">
<path fill-rule="evenodd" clip-rule="evenodd" d="M8 15C9.85652 15 11.637 14.2625 12.9497 12.9497C14.2625 11.637 15 9.85652 15 8C15 6.14348 14.2625 4.36301 12.9497 3.05025C11.637 1.7375 9.85652 1 8 1C6.14348 1 4.36301 1.7375 3.05025 3.05025C1.7375 4.36301 1 6.14348 1 8C1 9.85652 1.7375 11.637 3.05025 12.9497C4.36301 14.2625 6.14348 15 8 15ZM8 16C10.1217 16 12.1566 15.1571 13.6569 13.6569C15.1571 12.1566 16 10.1217 16 8C16 5.87827 15.1571 3.84344 13.6569 2.34315C12.1566 0.842855 10.1217 0 8 0C5.87827 0 3.84344 0.842855 2.34315 2.34315C0.842855 3.84344 0 5.87827 0 8C0 10.1217 0.842855 12.1566 2.34315 13.6569C3.84344 15.1571 5.87827 16 8 16Z" fill="#355169"/>
<path fill-rule="evenodd" clip-rule="evenodd" d="M10.9697 4.97028C11.1096 4.83155 11.2985 4.75348 11.4956 4.75293C11.6927 4.75239 11.882 4.82942 12.0227 4.96737C12.1634 5.10533 12.2442 5.29312 12.2476 5.49015C12.2509 5.68718 12.1766 5.87761 12.0407 6.02028L8.04867 11.0103C7.98006 11.0842 7.89725 11.1435 7.8052 11.1846C7.71315 11.2258 7.61374 11.248 7.51292 11.2499C7.4121 11.2517 7.31194 11.2332 7.21843 11.1955C7.12491 11.1578 7.03997 11.1016 6.96867 11.0303L4.32367 8.38428C4.24998 8.31562 4.19088 8.23282 4.14989 8.14082C4.1089 8.04882 4.08685 7.94951 4.08508 7.8488C4.0833 7.7481 4.10183 7.64807 4.13955 7.55468C4.17727 7.46129 4.23341 7.37646 4.30463 7.30524C4.37585 7.23402 4.46068 7.17788 4.55407 7.14016C4.64746 7.10244 4.74749 7.08391 4.84819 7.08569C4.94889 7.08747 5.04821 7.10951 5.14021 7.1505C5.23221 7.19149 5.31501 7.25059 5.38367 7.32428L7.47767 9.41728L10.9507 4.99228C10.9569 4.98453 10.9635 4.97719 10.9707 4.97028H10.9697Z" fill="#355169"/>
</g>
<defs>
<clipPath id="clip0">
<rect width="16" height="16" fill="white"/>
</clipPath>
</defs>
</svg>
