<svg width="16" height="16" viewBox="0 0 16 16" fill="none" xmlns="http://www.w3.org/2000/svg">
<path d="M7.99967 1.33203C11.6817 1.33203 14.6663 4.31736 14.6663 7.9987C14.6663 11.68 11.6817 14.6654 7.99967 14.6654C4.31767 14.6654 1.33301 11.68 1.33301 7.9987C1.33301 4.31736 4.31767 1.33203 7.99967 1.33203ZM7.99967 2.44336C4.93634 2.44336 2.44434 4.93536 2.44434 7.9987C2.44434 11.062 4.93634 13.554 7.99967 13.554C11.063 13.554 13.555 11.062 13.555 7.9987C13.555 4.93536 11.063 2.44336 7.99967 2.44336ZM7.49967 3.9987C7.75267 3.9987 7.96198 4.18692 7.99511 4.43088L7.99967 4.4987V7.9987H10.1663C10.4423 7.9987 10.6663 8.2227 10.6663 8.4987C10.6663 8.7517 10.4781 8.961 10.2342 8.99413L10.1663 8.9987H7.49967C7.24667 8.9987 7.03737 8.81048 7.00424 8.56651L6.99967 8.4987V4.4987C6.99967 4.2227 7.22367 3.9987 7.49967 3.9987Z" fill="#253D51"/>
</svg>
