<svg width="16" height="16" viewBox="0 0 16 16" fill="none" xmlns="http://www.w3.org/2000/svg">
<path d="M2.93129 3.03602L2.9797 2.97994C3.15721 2.80243 3.43499 2.78629 3.63073 2.93153L3.68681 2.97994L7.99992 7.29283L12.313 2.97994C12.5083 2.78468 12.8249 2.78468 13.0201 2.97994C13.2154 3.1752 13.2154 3.49179 13.0201 3.68705L8.70725 8.00016L13.0201 12.3133C13.1977 12.4908 13.2138 12.7686 13.0686 12.9643L13.0201 13.0204C12.8426 13.1979 12.5649 13.214 12.3691 13.0688L12.313 13.0204L7.99992 8.7075L3.68681 13.0204C3.49154 13.2156 3.17496 13.2156 2.9797 13.0204C2.78444 12.8251 2.78444 12.5085 2.9797 12.3133L7.29259 8.00016L2.9797 3.68705C2.80219 3.50954 2.78605 3.23176 2.93129 3.03602L2.9797 2.97994L2.93129 3.03602Z" fill="#8A93A2"/>
</svg>
