<svg width="16" height="16" viewBox="0 0 16 16" fill="none" xmlns="http://www.w3.org/2000/svg">
<g clip-path="url(#clip0)">
<path fill-rule="evenodd" clip-rule="evenodd" d="M11.251 0.0684417C11.3488 0.12518 11.4246 0.213432 11.4658 0.318779C11.507 0.424127 11.5113 0.540343 11.478 0.648442L9.67696 6.50044H13C13.0976 6.5004 13.1931 6.52896 13.2748 6.58259C13.3564 6.63622 13.4205 6.71258 13.4592 6.80223C13.4979 6.89189 13.5095 6.99092 13.4926 7.08709C13.4757 7.18327 13.4309 7.27239 13.364 7.34344L5.36396 15.8434C5.28655 15.9258 5.18354 15.9794 5.07173 15.9957C4.95991 16.012 4.84589 15.9899 4.74823 15.9331C4.65057 15.8762 4.57504 15.788 4.53395 15.6827C4.49286 15.5775 4.48863 15.4614 4.52196 15.3534L6.32296 9.50044H2.99996C2.9023 9.50048 2.80677 9.47192 2.72516 9.41829C2.64355 9.36466 2.57943 9.2883 2.54072 9.19865C2.50201 9.109 2.4904 9.00997 2.50732 8.91379C2.52425 8.81761 2.56896 8.7285 2.63596 8.65744L10.636 0.157442C10.7133 0.0752409 10.8161 0.0216103 10.9278 0.00527029C11.0394 -0.0110698 11.1533 0.0108416 11.251 0.0674417V0.0684417ZM4.15696 8.50044H6.99996C7.0782 8.50043 7.15536 8.51878 7.22523 8.55402C7.29509 8.58925 7.35571 8.6404 7.40221 8.70333C7.4487 8.76627 7.47978 8.83924 7.49293 8.91637C7.50609 8.99351 7.50096 9.07265 7.47796 9.14744L6.10996 13.5904L11.842 7.50044H8.99996C8.92171 7.50046 8.84455 7.48211 8.77468 7.44687C8.70482 7.41163 8.6442 7.36049 8.59771 7.29755C8.55121 7.23461 8.52013 7.16164 8.50698 7.08451C8.49382 7.00738 8.49895 6.92823 8.52196 6.85344L9.88996 2.41044L4.15696 8.50044Z" fill="#8A93A2"/>
</g>
<defs>
<clipPath id="clip0">
<rect width="16" height="16" fill="white"/>
</clipPath>
</defs>
</svg>
