<svg width="18" height="14" viewBox="0 0 18 14" fill="none" xmlns="http://www.w3.org/2000/svg">
<path d="M0 7C0.781958 3.01778 4.51456 0 9 0C13.4854 0 17.2172 3.01778 18 7C17.218 10.9822 13.4854 14 9 14C4.51456 14 0.78279 10.9822 0 7ZM9 10.8889C10.1031 10.8889 11.1611 10.4792 11.9411 9.74986C12.7211 9.02055 13.1593 8.0314 13.1593 7C13.1593 5.9686 12.7211 4.97945 11.9411 4.25014C11.1611 3.52083 10.1031 3.11111 9 3.11111C7.89687 3.11111 6.83893 3.52083 6.0589 4.25014C5.27887 4.97945 4.84065 5.9686 4.84065 7C4.84065 8.0314 5.27887 9.02055 6.0589 9.74986C6.83893 10.4792 7.89687 10.8889 9 10.8889ZM9 9.33333C8.33812 9.33333 7.70335 9.0875 7.23534 8.64992C6.76732 8.21233 6.50439 7.61884 6.50439 7C6.50439 6.38116 6.76732 5.78767 7.23534 5.35008C7.70335 4.9125 8.33812 4.66667 9 4.66667C9.66188 4.66667 10.2966 4.9125 10.7647 5.35008C11.2327 5.78767 11.4956 6.38116 11.4956 7C11.4956 7.61884 11.2327 8.21233 10.7647 8.64992C10.2966 9.0875 9.66188 9.33333 9 9.33333Z" fill="#B9BEC7"/>
</svg>
