<svg width="18" height="16" viewBox="0 0 18 16" fill="none" xmlns="http://www.w3.org/2000/svg">
<path d="M3.38999 3.45043L1.04474 1.10593L2.10599 0.0446777L16.9552 14.8947L15.894 15.9552L13.4115 13.4727C12.0924 14.3093 10.562 14.7524 8.99999 14.7499C4.95599 14.7499 1.59149 11.8399 0.885742 7.99993C1.20826 6.25297 2.08696 4.6571 3.39074 3.45043H3.38999ZM11.0677 11.1289L9.96974 10.0309C9.54978 10.2319 9.07782 10.2976 8.61894 10.219C8.16006 10.1405 7.73685 9.92147 7.40765 9.59227C7.07844 9.26307 6.85947 8.83986 6.7809 8.38098C6.70234 7.9221 6.76806 7.45014 6.96899 7.03018L5.87099 5.93218C5.39378 6.65329 5.18045 7.51718 5.26711 8.37754C5.35378 9.23791 5.73513 10.0419 6.34658 10.6533C6.95803 11.2648 7.76201 11.6461 8.62238 11.7328C9.48274 11.8195 10.3466 11.6061 11.0677 11.1289ZM5.98049 1.81993C6.91574 1.45243 7.93499 1.24993 8.99999 1.24993C13.044 1.24993 16.4085 4.15993 17.1142 7.99993C16.8844 9.2492 16.3679 10.4281 15.6052 11.4439L12.7102 8.54893C12.7962 7.96964 12.7454 7.37826 12.5617 6.82217C12.378 6.26608 12.0667 5.76074 11.6525 5.34663C11.2384 4.93252 10.7331 4.62116 10.177 4.43748C9.62091 4.25381 9.02953 4.20293 8.45024 4.28893L5.98049 1.82068V1.81993Z" fill="#B9BEC7"/>
</svg>
