<svg width="24" height="24" viewBox="0 0 24 24" fill="none" xmlns="http://www.w3.org/2000/svg">
<path fill-rule="evenodd" clip-rule="evenodd" d="M3.75 18.25C3.75 18.0511 3.82902 17.8603 3.96967 17.7197C4.11032 17.579 4.30109 17.5 4.5 17.5H19.5C19.6989 17.5 19.8897 17.579 20.0303 17.7197C20.171 17.8603 20.25 18.0511 20.25 18.25C20.25 18.4489 20.171 18.6397 20.0303 18.7803C19.8897 18.921 19.6989 19 19.5 19H4.5C4.30109 19 4.11032 18.921 3.96967 18.7803C3.82902 18.6397 3.75 18.4489 3.75 18.25ZM3.75 12.25C3.75 12.0511 3.82902 11.8603 3.96967 11.7197C4.11032 11.579 4.30109 11.5 4.5 11.5H19.5C19.6989 11.5 19.8897 11.579 20.0303 11.7197C20.171 11.8603 20.25 12.0511 20.25 12.25C20.25 12.4489 20.171 12.6397 20.0303 12.7803C19.8897 12.921 19.6989 13 19.5 13H4.5C4.30109 13 4.11032 12.921 3.96967 12.7803C3.82902 12.6397 3.75 12.4489 3.75 12.25ZM3.75 6.25C3.75 6.05109 3.82902 5.86032 3.96967 5.71967C4.11032 5.57902 4.30109 5.5 4.5 5.5H19.5C19.6989 5.5 19.8897 5.57902 20.0303 5.71967C20.171 5.86032 20.25 6.05109 20.25 6.25C20.25 6.44891 20.171 6.63968 20.0303 6.78033C19.8897 6.92098 19.6989 7 19.5 7H4.5C4.30109 7 4.11032 6.92098 3.96967 6.78033C3.82902 6.63968 3.75 6.44891 3.75 6.25Z" fill="#8A93A2"/>
</svg>
