<svg width="24" height="24" viewBox="0 0 24 24" fill="none" xmlns="http://www.w3.org/2000/svg">
<path d="M12 10.376C12.897 10.376 13.6243 11.1032 13.6243 12.0002C13.6243 12.8973 12.897 13.6245 12 13.6245C11.1029 13.6245 10.3757 12.8973 10.3757 12.0002C10.3757 11.1032 11.1029 10.376 12 10.376ZM18 10.376C18.897 10.376 19.6243 11.1032 19.6243 12.0002C19.6243 12.8973 18.897 13.6245 18 13.6245C17.1029 13.6245 16.3757 12.8973 16.3757 12.0002C16.3757 11.1032 17.1029 10.376 18 10.376ZM5.99999 10.376C6.89705 10.376 7.62426 11.1032 7.62426 12.0002C7.62426 12.8973 6.89705 13.6245 5.99999 13.6245C5.10294 13.6245 4.37573 12.8973 4.37573 12.0002C4.37573 11.1032 5.10294 10.376 5.99999 10.376Z" fill="#355169"/>
</svg>
