<svg width="16" height="16" viewBox="0 0 16 16" fill="none" xmlns="http://www.w3.org/2000/svg">
<g clip-path="url(#clip0)">
<path fill-rule="evenodd" clip-rule="evenodd" d="M8 15C9.85652 15 11.637 14.2625 12.9497 12.9497C14.2625 11.637 15 9.85652 15 8C15 6.14348 14.2625 4.36301 12.9497 3.05025C11.637 1.7375 9.85652 1 8 1C6.14348 1 4.36301 1.7375 3.05025 3.05025C1.7375 4.36301 1 6.14348 1 8C1 9.85652 1.7375 11.637 3.05025 12.9497C4.36301 14.2625 6.14348 15 8 15ZM8 16C10.1217 16 12.1566 15.1571 13.6569 13.6569C15.1571 12.1566 16 10.1217 16 8C16 5.87827 15.1571 3.84344 13.6569 2.34315C12.1566 0.842855 10.1217 0 8 0C5.87827 0 3.84344 0.842855 2.34315 2.34315C0.842855 3.84344 0 5.87827 0 8C0 10.1217 0.842855 12.1566 2.34315 13.6569C3.84344 15.1571 5.87827 16 8 16Z" fill="#EB5757"/>
<path fill-rule="evenodd" clip-rule="evenodd" d="M4.29368 4.29368C4.38653 4.20058 4.49684 4.12673 4.61828 4.07633C4.73973 4.02594 4.86992 4 5.00141 4C5.13289 4 5.26308 4.02594 5.38453 4.07633C5.50597 4.12673 5.61628 4.20058 5.70914 4.29368L8.00026 6.5868L10.2914 4.29368C10.4791 4.10597 10.7337 4.00052 10.9991 4.00052C11.2646 4.00052 11.5191 4.10597 11.7068 4.29368C11.8946 4.48138 12 4.73596 12 5.00141C12 5.26686 11.8946 5.52143 11.7068 5.70914L9.41372 8.00026L11.7068 10.2914C11.8946 10.4791 12 10.7337 12 10.9991C12 11.2646 11.8946 11.5191 11.7068 11.7068C11.5191 11.8946 11.2646 12 10.9991 12C10.7337 12 10.4791 11.8946 10.2914 11.7068L8.00026 9.41372L5.70914 11.7068C5.52143 11.8946 5.26686 12 5.00141 12C4.73596 12 4.48138 11.8946 4.29368 11.7068C4.10597 11.5191 4.00052 11.2646 4.00052 10.9991C4.00052 10.7337 4.10597 10.4791 4.29368 10.2914L6.5868 8.00026L4.29368 5.70914C4.20058 5.61628 4.12673 5.50597 4.07633 5.38453C4.02594 5.26308 4 5.13289 4 5.00141C4 4.86992 4.02594 4.73973 4.07633 4.61829C4.12673 4.49684 4.20058 4.38653 4.29368 4.29368Z" fill="#EB5757"/>
</g>
<defs>
<clipPath id="clip0">
<rect width="16" height="16" fill="white"/>
</clipPath>
</defs>
</svg>