<svg width="16" height="16" viewBox="0 0 16 16" fill="none" xmlns="http://www.w3.org/2000/svg">
<g clip-path="url(#clip0)">
<path fill-rule="evenodd" clip-rule="evenodd" d="M12.1497 0.132489C12.1962 0.0859262 12.2513 0.0489834 12.3121 0.023777C12.3728 -0.00142949 12.4379 -0.0144043 12.5037 -0.0144043C12.5695 -0.0144043 12.6346 -0.00142949 12.6953 0.023777C12.7561 0.0489834 12.8113 0.0859262 12.8577 0.132489L15.8577 3.13249C15.9043 3.17894 15.9412 3.23411 15.9664 3.29486C15.9916 3.3556 16.0046 3.42072 16.0046 3.48649C16.0046 3.55226 15.9916 3.61738 15.9664 3.67812C15.9412 3.73887 15.9043 3.79404 15.8577 3.84049L5.85771 13.8405C5.80973 13.8881 5.75257 13.9256 5.68971 13.9505L0.689712 15.9505C0.598848 15.9869 0.499308 15.9958 0.403432 15.9761C0.307556 15.9564 0.21956 15.9091 0.150353 15.8398C0.0811466 15.7706 0.0337731 15.6826 0.0141056 15.5868C-0.00556185 15.4909 0.00334166 15.3914 0.0397123 15.3005L2.03971 10.3005C2.06464 10.2376 2.10206 10.1805 2.14971 10.1325L12.1497 0.132489ZM11.2107 2.48649L13.5037 4.77949L14.7967 3.48649L12.5037 1.19349L11.2107 2.48649ZM12.7967 5.48649L10.5037 3.19349L4.00371 9.69349V9.98649H4.50371C4.63632 9.98649 4.7635 10.0392 4.85727 10.1329C4.95103 10.2267 5.00371 10.3539 5.00371 10.4865V10.9865H5.50371C5.63632 10.9865 5.7635 11.0392 5.85727 11.1329C5.95103 11.2267 6.00371 11.3539 6.00371 11.4865V11.9865H6.29671L12.7967 5.48649ZM3.03571 10.6615L2.92971 10.7675L1.40171 14.5885L5.22271 13.0605L5.32871 12.9545C5.23333 12.9189 5.1511 12.8549 5.09303 12.7713C5.03495 12.6877 5.00379 12.5883 5.00371 12.4865V11.9865H4.50371C4.3711 11.9865 4.24393 11.9338 4.15016 11.84C4.05639 11.7463 4.00371 11.6191 4.00371 11.4865V10.9865H3.50371C3.40189 10.9864 3.30252 10.9553 3.21889 10.8972C3.13526 10.8391 3.07135 10.7569 3.03571 10.6615Z" fill="#8A93A2"/>
</g>
<defs>
<clipPath id="clip0">
<rect width="16" height="16" fill="white"/>
</clipPath>
</defs>
</svg>
