<svg width="24" height="24" viewBox="0 0 24 24" fill="none" xmlns="http://www.w3.org/2000/svg">
<path d="M10.4444 4C14.0036 4 16.8889 6.88528 16.8889 10.4444C16.8889 11.9839 16.3491 13.3973 15.4485 14.5056L19.8047 18.8619C20.0651 19.1223 20.0651 19.5444 19.8047 19.8047C19.5681 20.0414 19.1977 20.0629 18.9367 19.8693L18.8619 19.8047L14.5056 15.4485C13.3973 16.3491 11.9839 16.8889 10.4444 16.8889C6.88528 16.8889 4 14.0036 4 10.4444C4 6.88528 6.88528 4 10.4444 4ZM10.4444 5.33333C7.62166 5.33333 5.33333 7.62166 5.33333 10.4444C5.33333 13.2672 7.62166 15.5556 10.4444 15.5556C13.2672 15.5556 15.5556 13.2672 15.5556 10.4444C15.5556 7.62166 13.2672 5.33333 10.4444 5.33333Z" fill="#B9BEC7"/>
</svg>
