<svg width="12" height="6" viewBox="0 0 12 6" fill="none" xmlns="http://www.w3.org/2000/svg">
<path fill-rule="evenodd" clip-rule="evenodd" d="M11.8644 0.125877C11.9074 0.165677 11.9415 0.212958 11.9648 0.265012C11.988 0.317066 12 0.37287 12 0.429228C12 0.485585 11.988 0.541389 11.9648 0.593443C11.9415 0.645497 11.9074 0.692779 11.8644 0.732579L6.32661 5.87412C6.28374 5.91402 6.23282 5.94568 6.17675 5.96728C6.12068 5.98888 6.06058 6 5.99988 6C5.93918 6 5.87907 5.98888 5.82301 5.96728C5.76694 5.94568 5.71602 5.91402 5.67315 5.87412L0.135336 0.732578C0.0486812 0.652125 -2.37356e-08 0.543006 -1.87621e-08 0.429227C-1.37887e-08 0.315449 0.0486813 0.20633 0.135336 0.125876C0.22199 0.0454223 0.339519 0.000223819 0.462067 0.000223824C0.584615 0.00022383 0.702144 0.0454224 0.788797 0.125876L5.99988 4.96493L11.211 0.125877C11.2538 0.0859754 11.3048 0.0543181 11.3608 0.032718C11.4169 0.011118 11.477 -2.28615e-08 11.5377 -2.02082e-08C11.5984 -1.75549e-08 11.6585 0.011118 11.7146 0.0327181C11.7706 0.0543181 11.8216 0.0859754 11.8644 0.125877Z" fill="white"/>
</svg>
