<svg width="16" height="16" viewBox="0 0 16 16" fill="none" xmlns="http://www.w3.org/2000/svg">
                <path
                  d="M1.47993 6.14646L4.47644 3.14976C4.65381 2.97237 4.93134 2.9561 5.12708 3.10104L5.18317 3.14936L8.18641 6.14606C8.38188 6.34111 8.38223 6.6577 8.18718 6.85317C8.00986 7.03087 7.7321 7.04731 7.5362 6.90229L7.48007 6.85394L5.3315 4.70937L5.33194 12.5066C5.33194 12.7597 5.14383 12.9689 4.89978 13.002L4.83194 13.0066C4.57881 13.0066 4.36961 12.8185 4.3365 12.5744L4.33194 12.5066L4.3315 4.70804L2.18706 6.85354C2.00956 7.03106 1.73178 7.04721 1.53603 6.90198L1.47995 6.85357C1.30244 6.67606 1.28629 6.39829 1.43152 6.20254L1.47993 6.14646L4.47644 3.14976L1.47993 6.14646ZM11.0996 3.00127L11.1674 2.9967C11.4205 2.9967 11.6297 3.18481 11.6628 3.42886L11.6674 3.4967L11.6668 11.294L13.8131 9.1466C13.9906 8.96901 14.2683 8.95276 14.4641 9.09791L14.5202 9.1463C14.6978 9.32374 14.7141 9.60151 14.5689 9.79731L14.5205 9.85341L11.523 12.8534C11.3456 13.031 11.0678 13.0472 10.872 12.9021L10.8159 12.8537L7.81342 9.8537C7.61808 9.65852 7.61795 9.34194 7.81313 9.1466C7.99057 8.96901 8.26833 8.95276 8.46414 9.09791L8.52024 9.1463L10.6668 11.2914L10.6674 3.4967C10.6674 3.24357 10.8555 3.03438 11.0996 3.00127L11.1674 2.9967L11.0996 3.00127Z"
                  fill="white"
                />
              </svg>