<svg width="16" height="11" viewBox="0 0 16 11" fill="none" xmlns="http://www.w3.org/2000/svg">
<path d="M6.44149 8.34533L11.4443 1.52915C11.61 1.3035 11.9163 1.23642 12.1602 1.37239C12.3798 1.49478 12.4874 1.74746 12.4321 1.98695L12.4075 2.0661L9.31304 9.94626C8.97722 10.8015 8.01567 11.2209 7.16535 10.8832C7.09861 10.8567 7.03365 10.8258 6.97089 10.7908C6.17108 10.3449 5.88211 9.33138 6.32545 8.52699L6.38054 8.43427L6.44149 8.34533L11.4443 1.52915L6.44149 8.34533ZM9.48055 6.23585L7.40644 9.06173L7.37446 9.1118C7.25226 9.33352 7.33191 9.61289 7.55237 9.73579L7.60593 9.76122C7.81672 9.84495 8.05234 9.75974 8.16479 9.57014L8.1975 9.50316L9.48055 6.23585ZM13.2862 1.90634C13.8896 2.39795 14.4356 2.98142 14.9032 3.65301C15.3226 4.25539 15.7264 4.98479 15.9586 5.58171C16.0793 5.89191 15.9271 6.24177 15.6187 6.36315C15.3102 6.48453 14.9624 6.33146 14.8417 6.02126C14.7639 5.82131 14.6601 5.59809 14.54 5.36842L12.9012 6.31999C12.6144 6.48654 12.2476 6.3877 12.082 6.09923C11.9302 5.83479 12.0002 5.5028 12.2338 5.32102L12.3015 5.27533L13.9153 4.33695L13.7311 4.08467C13.4721 3.74486 13.1888 3.43374 12.8853 3.15208L13.1893 2.37662C13.2196 2.29948 13.2427 2.22108 13.2587 2.14224L13.2777 2.02374L13.2862 1.90634ZM11.1844 0.650811C11.0653 0.720421 10.9554 0.808951 10.8593 0.915087L10.768 1.02704L10.3355 1.61646C9.77434 1.42029 9.19163 1.29336 8.60118 1.23814L8.60099 3.38759C8.60099 3.72069 8.33249 3.99072 8.00129 3.99072C7.69769 3.99072 7.44678 3.76382 7.40707 3.46943L7.4016 3.38759L7.40129 1.22492C6.1246 1.31622 4.8553 1.74574 3.73058 2.5378C3.07815 2.99725 2.5093 3.60112 2.03645 4.31078L3.70138 5.27747C3.9882 5.44402 4.08648 5.81289 3.92088 6.10137C3.76908 6.3658 3.44824 6.47089 3.17489 6.35828L3.10168 6.32213L1.44317 5.35954C1.34101 5.57363 1.24614 5.79402 1.15881 6.01999C1.03883 6.33046 0.691304 6.48432 0.3826 6.36365C0.073896 6.24297 -0.079089 5.89346 0.0408984 5.58298C0.68573 3.91444 1.70348 2.49274 3.04263 1.54968C5.5149 -0.191351 8.5873 -0.427403 11.1844 0.650811Z" fill="#D7E2F2"/>
</svg>
