<svg width="16" height="16" viewBox="0 0 16 16" fill="none" xmlns="http://www.w3.org/2000/svg">
<path d="M5.725 9.53125C6.80034 9.53125 7.70142 10.264 7.93885 11.2489L14.475 11.25C14.7649 11.25 15 11.4809 15 11.7656C15 12.0267 14.8025 12.2424 14.5462 12.2765L14.475 12.2812L7.93901 12.2817C7.70184 13.2669 6.80059 14 5.725 14C4.64941 14 3.74816 13.2669 3.51099 12.2817L1.525 12.2812C1.23505 12.2812 1 12.0504 1 11.7656C1 11.5046 1.19751 11.2889 1.45376 11.2547L1.525 11.25L3.51099 11.2495C3.74816 10.2643 4.64941 9.53125 5.725 9.53125ZM5.725 10.5625C5.1901 10.5625 4.73528 10.8992 4.56827 11.3686L4.55387 11.4117L4.52693 11.5136C4.50928 11.5948 4.5 11.6792 4.5 11.7656C4.5 11.8721 4.51408 11.9753 4.5405 12.0736L4.56836 12.1629L4.58635 12.2102C4.76638 12.6546 5.20834 12.9688 5.725 12.9688C6.25963 12.9688 6.71427 12.6324 6.88148 12.1634L6.90953 12.0735L6.89757 12.1149C6.93167 12.0044 6.95 11.8871 6.95 11.7656C6.95 11.6936 6.94355 11.623 6.93118 11.5544L6.91016 11.4601L6.89616 11.4118L6.86338 11.3204C6.68316 10.8763 6.2414 10.5625 5.725 10.5625ZM10.275 3C11.3506 3 12.2518 3.7331 12.489 4.71829L14.475 4.71875C14.7649 4.71875 15 4.9496 15 5.23438C15 5.49542 14.8025 5.71115 14.5462 5.74529L14.475 5.75L12.489 5.75046C12.2518 6.73565 11.3506 7.46875 10.275 7.46875C9.19941 7.46875 8.29816 6.73565 8.06099 5.75046L1.525 5.75C1.23505 5.75 1 5.51915 1 5.23438C1 4.97333 1.19751 4.7576 1.45376 4.72346L1.525 4.71875L8.06115 4.7176C8.29858 3.73275 9.19966 3 10.275 3ZM10.275 4.03125C9.7401 4.03125 9.28528 4.36796 9.11827 4.83734L9.10387 4.88042L9.07693 4.98231C9.05928 5.0636 9.05 5.14792 9.05 5.23438C9.05 5.34082 9.06408 5.44404 9.0905 5.54234L9.11836 5.63166L9.13635 5.67894C9.31638 6.12336 9.75834 6.4375 10.275 6.4375C10.8096 6.4375 11.2643 6.10112 11.4315 5.6321L11.4595 5.54224L11.4476 5.58368C11.4817 5.47313 11.5 5.35586 11.5 5.23438C11.5 5.16231 11.4935 5.09172 11.4812 5.02314L11.4602 4.92889L11.4462 4.88051L11.4134 4.78912C11.2332 4.34507 10.7914 4.03125 10.275 4.03125Z" fill="#D7E2F2"/>
</svg>
