<svg width="16" height="16" viewBox="0 0 16 16" fill="none" xmlns="http://www.w3.org/2000/svg">
<path fill-rule="evenodd" clip-rule="evenodd" d="M15.354 2.64689C15.4006 2.69334 15.4375 2.74851 15.4627 2.80926C15.4879 2.87001 15.5009 2.93513 15.5009 3.00089C15.5009 3.06666 15.4879 3.13178 15.4627 3.19253C15.4375 3.25327 15.4006 3.30845 15.354 3.35489L8.35402 10.3549C8.30758 10.4015 8.2524 10.4384 8.19165 10.4636C8.13091 10.4888 8.06579 10.5018 8.00002 10.5018C7.93425 10.5018 7.86913 10.4888 7.80839 10.4636C7.74764 10.4384 7.69247 10.4015 7.64602 10.3549L4.64602 7.35489C4.59953 7.3084 4.56266 7.25322 4.5375 7.19248C4.51234 7.13174 4.49939 7.06664 4.49939 7.00089C4.49939 6.93515 4.51234 6.87005 4.5375 6.80931C4.56266 6.74857 4.59953 6.69338 4.64602 6.64689C4.69251 6.6004 4.7477 6.56353 4.80844 6.53837C4.86918 6.51321 4.93428 6.50026 5.00002 6.50026C5.06577 6.50026 5.13087 6.51321 5.19161 6.53837C5.25234 6.56353 5.30753 6.6004 5.35402 6.64689L8.00002 9.29389L14.646 2.64689C14.6925 2.60033 14.7476 2.56339 14.8084 2.53818C14.8691 2.51297 14.9343 2.5 15 2.5C15.0658 2.5 15.1309 2.51297 15.1917 2.53818C15.2524 2.56339 15.3076 2.60033 15.354 2.64689Z" fill="#D7E2F2"/>
<path fill-rule="evenodd" clip-rule="evenodd" d="M8.00001 2.50084C6.91221 2.50084 5.84884 2.82341 4.94437 3.42776C4.0399 4.03211 3.33495 4.89109 2.91867 5.89609C2.50239 6.90108 2.39347 8.00695 2.60569 9.07384C2.81791 10.1407 3.34173 11.1207 4.11092 11.8899C4.88011 12.6591 5.86012 13.1829 6.92701 13.3952C7.99391 13.6074 9.09978 13.4985 10.1048 13.0822C11.1098 12.6659 11.9687 11.961 12.5731 11.0565C13.1774 10.152 13.5 9.08864 13.5 8.00084C13.5 7.86824 13.5527 7.74106 13.6465 7.64729C13.7402 7.55352 13.8674 7.50084 14 7.50084C14.1326 7.50084 14.2598 7.55352 14.3536 7.64729C14.4473 7.74106 14.5 7.86824 14.5 8.00084C14.4998 9.43168 14.0275 10.8225 13.1564 11.9575C12.2852 13.0926 11.0638 13.9085 9.68173 14.2787C8.29961 14.6489 6.83396 14.5527 5.51209 14.005C4.19021 13.4574 3.08597 12.4888 2.37064 11.2496C1.6553 10.0105 1.36883 8.56987 1.55566 7.15128C1.74249 5.73269 2.39218 4.41539 3.40396 3.40367C4.41575 2.39195 5.73309 1.74234 7.15169 1.5556C8.57029 1.36887 10.0109 1.65543 11.25 2.37084C11.3098 2.4021 11.3626 2.44512 11.4053 2.49732C11.448 2.54952 11.4797 2.60981 11.4984 2.67458C11.5172 2.73934 11.5227 2.80724 11.5146 2.87418C11.5065 2.94112 11.4849 3.00573 11.4511 3.06411C11.4174 3.12249 11.3722 3.17344 11.3182 3.2139C11.2643 3.25436 11.2027 3.28349 11.1372 3.29953C11.0717 3.31557 11.0036 3.3182 10.9371 3.30726C10.8706 3.29631 10.8069 3.27202 10.75 3.23584C9.91424 2.75253 8.96547 2.49895 8.00001 2.50084Z" fill="#D7E2F2"/>
</svg>
