<svg width="16" height="16" viewBox="0 0 16 16" fill="none" xmlns="http://www.w3.org/2000/svg">
<g clip-path="url(#clip0)">
<path fill-rule="evenodd" clip-rule="evenodd" d="M8 15C9.85652 15 11.637 14.2625 12.9497 12.9497C14.2625 11.637 15 9.85652 15 8C15 6.14348 14.2625 4.36301 12.9497 3.05025C11.637 1.7375 9.85652 1 8 1C6.14348 1 4.36301 1.7375 3.05025 3.05025C1.7375 4.36301 1 6.14348 1 8C1 9.85652 1.7375 11.637 3.05025 12.9497C4.36301 14.2625 6.14348 15 8 15ZM8 16C10.1217 16 12.1566 15.1571 13.6569 13.6569C15.1571 12.1566 16 10.1217 16 8C16 5.87827 15.1571 3.84344 13.6569 2.34315C12.1566 0.842855 10.1217 0 8 0C5.87827 0 3.84344 0.842855 2.34315 2.34315C0.842855 3.84344 0 5.87827 0 8C0 10.1217 0.842855 12.1566 2.34315 13.6569C3.84344 15.1571 5.87827 16 8 16Z" fill="#D7E2F2"/>
<path d="M7.00195 10.9991C7.00195 10.8678 7.02782 10.7378 7.07807 10.6165C7.12833 10.4951 7.20199 10.3849 7.29485 10.292C7.38771 10.1992 7.49794 10.1255 7.61927 10.0753C7.7406 10.025 7.87063 9.99914 8.00195 9.99914C8.13328 9.99914 8.26331 10.025 8.38464 10.0753C8.50596 10.1255 8.6162 10.1992 8.70906 10.292C8.80192 10.3849 8.87558 10.4951 8.92583 10.6165C8.97609 10.7378 9.00195 10.8678 9.00195 10.9991C9.00195 11.2644 8.8966 11.5187 8.70906 11.7062C8.52152 11.8938 8.26717 11.9991 8.00195 11.9991C7.73674 11.9991 7.48238 11.8938 7.29485 11.7062C7.10731 11.5187 7.00195 11.2644 7.00195 10.9991ZM7.09995 4.99414C7.08664 4.86798 7.09999 4.74043 7.13915 4.61977C7.17831 4.4991 7.24241 4.38802 7.32727 4.29373C7.41214 4.19943 7.51588 4.12403 7.63176 4.07242C7.74765 4.02081 7.87309 3.99414 7.99995 3.99414C8.12681 3.99414 8.25226 4.02081 8.36814 4.07242C8.48403 4.12403 8.58777 4.19943 8.67263 4.29373C8.7575 4.38802 8.82159 4.4991 8.86075 4.61977C8.89991 4.74043 8.91327 4.86798 8.89995 4.99414L8.54995 8.50114C8.53819 8.63891 8.47516 8.76725 8.37331 8.86078C8.27146 8.9543 8.13823 9.00619 7.99995 9.00619C7.86168 9.00619 7.72844 8.9543 7.6266 8.86078C7.52475 8.76725 7.46171 8.63891 7.44995 8.50114L7.09995 4.99414Z" fill="#D7E2F2"/>
</g>
<defs>
<clipPath id="clip0">
<rect width="16" height="16" fill="white"/>
</clipPath>
</defs>
</svg>
