<svg width="16" height="16" viewBox="0 0 16 16" fill="none" xmlns="http://www.w3.org/2000/svg">
<path fill-rule="evenodd" clip-rule="evenodd" d="M1.5 13C1.5 13.3978 1.65804 13.7794 1.93934 14.0607C2.22064 14.342 2.60218 14.5 3 14.5H11C11.3978 14.5 11.7794 14.342 12.0607 14.0607C12.342 13.7794 12.5 13.3978 12.5 13V9C12.5 8.86739 12.4473 8.74021 12.3536 8.64645C12.2598 8.55268 12.1326 8.5 12 8.5C11.8674 8.5 11.7402 8.55268 11.6464 8.64645C11.5527 8.74021 11.5 8.86739 11.5 9V13C11.5 13.1326 11.4473 13.2598 11.3536 13.3536C11.2598 13.4473 11.1326 13.5 11 13.5H3C2.86739 13.5 2.74021 13.4473 2.64645 13.3536C2.55268 13.2598 2.5 13.1326 2.5 13V5C2.5 4.86739 2.55268 4.74021 2.64645 4.64645C2.74021 4.55268 2.86739 4.5 3 4.5H7C7.13261 4.5 7.25979 4.44732 7.35355 4.35355C7.44732 4.25979 7.5 4.13261 7.5 4C7.5 3.86739 7.44732 3.74021 7.35355 3.64645C7.25979 3.55268 7.13261 3.5 7 3.5H3C2.60218 3.5 2.22064 3.65804 1.93934 3.93934C1.65804 4.22064 1.5 4.60218 1.5 5V13ZM8.5 2C8.5 1.86739 8.55268 1.74021 8.64645 1.64645C8.74021 1.55268 8.86739 1.5 9 1.5H14C14.1326 1.5 14.2598 1.55268 14.3536 1.64645C14.4473 1.74021 14.5 1.86739 14.5 2V7C14.5 7.13261 14.4473 7.25979 14.3536 7.35355C14.2598 7.44732 14.1326 7.5 14 7.5C13.8674 7.5 13.7402 7.44732 13.6464 7.35355C13.5527 7.25979 13.5 7.13261 13.5 7V2.5H9C8.86739 2.5 8.74021 2.44732 8.64645 2.35355C8.55268 2.25979 8.5 2.13261 8.5 2Z" fill="white"/>
<path fill-rule="evenodd" clip-rule="evenodd" d="M14.3546 1.64592C14.4012 1.69236 14.4381 1.74754 14.4633 1.80828C14.4886 1.86903 14.5015 1.93415 14.5015 1.99992C14.5015 2.06568 14.4886 2.13081 14.4633 2.19155C14.4381 2.2523 14.4012 2.30747 14.3546 2.35392L6.35463 10.3539C6.30814 10.4004 6.25295 10.4373 6.19222 10.4624C6.13148 10.4876 6.06638 10.5005 6.00063 10.5005C5.93489 10.5005 5.86979 10.4876 5.80905 10.4624C5.74831 10.4373 5.69312 10.4004 5.64663 10.3539C5.60014 10.3074 5.56327 10.2522 5.53811 10.1915C5.51295 10.1308 5.5 10.0657 5.5 9.99992C5.5 9.93417 5.51295 9.86907 5.53811 9.80833C5.56327 9.74759 5.60014 9.6924 5.64663 9.64592L13.6466 1.64592C13.6931 1.59935 13.7483 1.56241 13.809 1.5372C13.8697 1.512 13.9349 1.49902 14.0006 1.49902C14.0664 1.49902 14.1315 1.512 14.1923 1.5372C14.253 1.56241 14.3082 1.59935 14.3546 1.64592Z" fill="white"/>
</svg>
