<svg width="16" height="16" viewBox="0 0 16 16" fill="none" xmlns="http://www.w3.org/2000/svg">
<g clip-path="url(#clip0)">
<path fill-rule="evenodd" clip-rule="evenodd" d="M1 15.5C1 15.3674 1.05268 15.2402 1.14645 15.1464C1.24021 15.0527 1.36739 15 1.5 15H14.5C14.6326 15 14.7598 15.0527 14.8536 15.1464C14.9473 15.2402 15 15.3674 15 15.5C15 15.6326 14.9473 15.7598 14.8536 15.8536C14.7598 15.9473 14.6326 16 14.5 16H1.5C1.36739 16 1.24021 15.9473 1.14645 15.8536C1.05268 15.7598 1 15.6326 1 15.5ZM11.5 2H11V1H11.5C11.8978 1 12.2794 1.15804 12.5607 1.43934C12.842 1.72064 13 2.10218 13 2.5V15H12V2.5C12 2.36739 11.9473 2.24021 11.8536 2.14645C11.7598 2.05268 11.6326 2 11.5 2Z" fill="#EB5757"/>
<path fill-rule="evenodd" clip-rule="evenodd" d="M10.828 0.122022C10.8821 0.169025 10.9254 0.227103 10.9551 0.29232C10.9848 0.357537 11.0001 0.428371 11 0.500022V15H10V1.07702L4 1.93402V15H3V1.50002C3.00002 1.37955 3.04353 1.26314 3.12253 1.1722C3.20154 1.08125 3.31072 1.02189 3.43 1.00502L10.43 0.00502214C10.5008 -0.00509591 10.573 0.000113439 10.6417 0.0202981C10.7104 0.0404827 10.7739 0.0751723 10.828 0.122022Z" fill="#EB5757"/>
<path d="M8 9C8 9.552 8.224 10 8.5 10C8.776 10 9 9.552 9 9C9 8.448 8.776 8 8.5 8C8.224 8 8 8.448 8 9Z" fill="#EB5757"/>
</g>
<defs>
<clipPath id="clip0">
<rect width="16" height="16" fill="white"/>
</clipPath>
</defs>
</svg>
