<svg width="16" height="16" viewBox="0 0 16 16" fill="none" xmlns="http://www.w3.org/2000/svg">
<g clip-path="url(#clip0)">
<path fill-rule="evenodd" clip-rule="evenodd" d="M8.84431 1.63331C8.59831 0.798313 7.41631 0.798313 7.17031 1.63331L7.07631 1.95231C6.99726 2.22026 6.85927 2.46713 6.67244 2.67483C6.48562 2.88254 6.2547 3.04583 5.9966 3.15273C5.7385 3.25963 5.45975 3.30745 5.18078 3.29267C4.90181 3.27789 4.62967 3.20089 4.38431 3.06731L4.09231 2.90731C3.32831 2.49231 2.49231 3.32731 2.90831 4.09231L3.06731 4.38431C3.20089 4.62967 3.27789 4.90181 3.29267 5.18078C3.30745 5.45975 3.25963 5.7385 3.15273 5.9966C3.04583 6.2547 2.88254 6.48562 2.67483 6.67244C2.46713 6.85927 2.22026 6.99726 1.95231 7.07631L1.63331 7.17031C0.798313 7.41631 0.798313 8.59831 1.63331 8.84431L1.95231 8.93831C2.2204 9.01733 2.4674 9.15535 2.67521 9.34224C2.88302 9.52913 3.04638 9.76016 3.15329 10.0184C3.26021 10.2766 3.30798 10.5555 3.2931 10.8346C3.27823 11.1137 3.20108 11.3859 3.06731 11.6313L2.90731 11.9223C2.49231 12.6863 3.32731 13.5223 4.09231 13.1063L4.38431 12.9473C4.62974 12.8138 4.90194 12.7368 5.18097 12.7221C5.46 12.7074 5.73878 12.7553 5.9969 12.8623C6.25501 12.9693 6.48592 13.1327 6.67269 13.3405C6.85946 13.5483 6.99737 13.7953 7.07631 14.0633L7.17031 14.3813C7.41631 15.2163 8.59831 15.2163 8.84431 14.3813L8.93831 14.0623C9.01733 13.7942 9.15535 13.5472 9.34224 13.3394C9.52913 13.1316 9.76016 12.9683 10.0184 12.8613C10.2766 12.7544 10.5555 12.7066 10.8346 12.7215C11.1137 12.7364 11.3859 12.8135 11.6313 12.9473L11.9223 13.1073C12.6863 13.5223 13.5223 12.6873 13.1063 11.9223L12.9473 11.6313C12.8136 11.3858 12.7365 11.1136 12.7216 10.8344C12.7068 10.5553 12.7547 10.2763 12.8617 10.0181C12.9687 9.75985 13.1322 9.52884 13.3401 9.34199C13.548 9.15515 13.7951 9.01722 14.0633 8.93831L14.3813 8.84431C15.2163 8.59831 15.2163 7.41631 14.3813 7.17031L14.0623 7.07631C13.7944 6.99726 13.5475 6.85927 13.3398 6.67244C13.1321 6.48562 12.9688 6.2547 12.8619 5.9966C12.755 5.7385 12.7072 5.45975 12.722 5.18078C12.7367 4.90181 12.8137 4.62967 12.9473 4.38431L13.1073 4.09231C13.5223 3.32831 12.6873 2.49231 11.9223 2.90831L11.6313 3.06731C11.3859 3.20126 11.1136 3.27856 10.8343 3.29354C10.5551 3.30852 10.2761 3.26079 10.0178 3.15386C9.7594 3.04693 9.52826 2.88351 9.3413 2.67559C9.15434 2.46768 9.0163 2.22054 8.93731 1.95231L8.84331 1.63331H8.84431ZM6.21131 1.35031C6.73831 -0.439688 9.27631 -0.439688 9.80331 1.35031L9.89731 1.66931C9.93412 1.79426 9.99842 1.9094 10.0855 2.00627C10.1726 2.10314 10.2802 2.1793 10.4006 2.22916C10.5209 2.27903 10.6509 2.30133 10.781 2.29443C10.911 2.28753 11.0379 2.25162 11.1523 2.18931L11.4443 2.02931C13.0843 1.13731 14.8783 2.93031 13.9843 4.57031L13.8253 4.86231C13.763 4.97671 13.7271 5.10359 13.7202 5.23367C13.7133 5.36374 13.7356 5.49372 13.7855 5.61405C13.8353 5.73439 13.9115 5.84205 14.0084 5.92913C14.1052 6.01621 14.2204 6.08051 14.3453 6.11731L14.6643 6.21131C16.4543 6.73831 16.4543 9.27631 14.6643 9.80331L14.3453 9.89731C14.2204 9.93412 14.1052 9.99842 14.0084 10.0855C13.9115 10.1726 13.8353 10.2802 13.7855 10.4006C13.7356 10.5209 13.7133 10.6509 13.7202 10.781C13.7271 10.911 13.763 11.0379 13.8253 11.1523L13.9853 11.4443C14.8783 13.0843 13.0833 14.8783 11.4443 13.9843L11.1523 13.8253C11.0379 13.763 10.911 13.7271 10.781 13.7202C10.6509 13.7133 10.5209 13.7356 10.4006 13.7855C10.2802 13.8353 10.1726 13.9115 10.0855 14.0084C9.99842 14.1052 9.93412 14.2204 9.89731 14.3453L9.80331 14.6643C9.27631 16.4543 6.73831 16.4543 6.21131 14.6643L6.11731 14.3453C6.08051 14.2204 6.01621 14.1052 5.92913 14.0084C5.84205 13.9115 5.73439 13.8353 5.61405 13.7855C5.49372 13.7356 5.36374 13.7133 5.23367 13.7202C5.10359 13.7271 4.97671 13.763 4.86231 13.8253L4.57031 13.9853C2.93031 14.8783 1.13731 13.0833 2.03031 11.4443L2.18931 11.1523C2.25162 11.0379 2.28753 10.911 2.29443 10.781C2.30133 10.6509 2.27903 10.5209 2.22916 10.4006C2.1793 10.2802 2.10314 10.1726 2.00627 10.0855C1.9094 9.99842 1.79426 9.93412 1.66931 9.89731L1.35031 9.80331C-0.439688 9.27631 -0.439688 6.73831 1.35031 6.21131L1.66931 6.11731C1.79426 6.08051 1.9094 6.01621 2.00627 5.92913C2.10314 5.84205 2.1793 5.73439 2.22916 5.61405C2.27903 5.49372 2.30133 5.36374 2.29443 5.23367C2.28753 5.10359 2.25162 4.97671 2.18931 4.86231L2.02931 4.57031C1.13731 2.93031 2.93131 1.13731 4.57031 2.03031L4.86231 2.18931C4.97671 2.25162 5.10359 2.28753 5.23367 2.29443C5.36374 2.30133 5.49372 2.27903 5.61405 2.22916C5.73439 2.1793 5.84205 2.10314 5.92913 2.00627C6.01621 1.9094 6.08051 1.79426 6.11731 1.66931L6.21131 1.35031Z" fill="#8A93A2"/>
<path fill-rule="evenodd" clip-rule="evenodd" d="M7.99991 5.75391C7.40423 5.75391 6.83295 5.99054 6.41174 6.41174C5.99054 6.83295 5.75391 7.40423 5.75391 7.99991C5.75391 8.59558 5.99054 9.16686 6.41174 9.58807C6.83295 10.0093 7.40423 10.2459 7.99991 10.2459C8.59558 10.2459 9.16686 10.0093 9.58807 9.58807C10.0093 9.16686 10.2459 8.59558 10.2459 7.99991C10.2459 7.40423 10.0093 6.83295 9.58807 6.41174C9.16686 5.99054 8.59558 5.75391 7.99991 5.75391ZM4.75391 7.99991C4.75391 7.57364 4.83787 7.15154 5.00099 6.75772C5.16412 6.36389 5.40322 6.00606 5.70464 5.70464C6.00606 5.40322 6.36389 5.16412 6.75772 5.00099C7.15154 4.83787 7.57364 4.75391 7.99991 4.75391C8.42618 4.75391 8.84827 4.83787 9.2421 5.00099C9.63592 5.16412 9.99376 5.40322 10.2952 5.70464C10.5966 6.00606 10.8357 6.36389 10.9988 6.75772C11.1619 7.15154 11.2459 7.57364 11.2459 7.99991C11.2459 8.8608 10.9039 9.68643 10.2952 10.2952C9.68643 10.9039 8.8608 11.2459 7.99991 11.2459C7.13901 11.2459 6.31338 10.9039 5.70464 10.2952C5.09589 9.68643 4.75391 8.8608 4.75391 7.99991Z" fill="#8A93A2"/>
</g>
<defs>
<clipPath id="clip0">
<rect width="16" height="16" fill="white"/>
</clipPath>
</defs>
</svg>
